<svg xmlns="http://www.w3.org/2000/svg" viewBox="0 0 64 50.41"><defs><style>.cls-1{fill:#ffbc00;}</style></defs><title>progresion</title><g id="Capa_2" data-name="Capa 2"><g id="bg-testimonios"><path class="cls-1" d="M64,47.05c-.9.94-1.78,1.9-2.7,2.83a1.26,1.26,0,0,1-1.88.19c-.55-.51-.53-1.15,0-1.89,0,0,.07-.09.2-.26H4.4c-.2,0-.41,0-.62,0a1.24,1.24,0,0,1-1.27-1.27q0-4.19,0-8.36A1.21,1.21,0,0,1,3.78,37,1.25,1.25,0,0,1,5,38.4c0,2.1,0,4.2,0,6.3v.69h6.26v-.65q0-3.39,0-6.8c0-.8.31-1.32.88-1.49a1.25,1.25,0,0,1,1.61,1.36c0,2.29,0,4.57,0,6.86v.71h10V26.06a4.69,4.69,0,0,1,.07-.92,1.16,1.16,0,0,1,1.2-1,1.19,1.19,0,0,1,1.18,1,8.46,8.46,0,0,1,0,.87V45.4h10.4V37.93a3.64,3.64,0,0,1,.06-.81A1.22,1.22,0,0,1,38,36.2a1.18,1.18,0,0,1,1.16.88,3.62,3.62,0,0,1,.09.87v7.44H52.75v-17a3.55,3.55,0,0,1,.06-.8A1.19,1.19,0,0,1,54,26.69a1.16,1.16,0,0,1,1.19.9,3.11,3.11,0,0,1,.08.8v17h4.37c-.14-.21-.27-.36-.38-.53a1.18,1.18,0,0,1,.13-1.54A1.14,1.14,0,0,1,61,43.19a19.23,19.23,0,0,1,1.53,1.46c.52.54,1,1.1,1.51,1.65Z"/><path class="cls-1" d="M0,3.38c.94-1,1.87-2,2.84-3A1.24,1.24,0,0,1,4.77.51C5.52,1.24,6.25,2,7,2.72A1.25,1.25,0,0,1,7.14,4.6c-.5.52-1.13.51-1.84,0L5,4.33V27.18a4.71,4.71,0,0,1,0,.75,1.19,1.19,0,0,1-1.21,1,1.18,1.18,0,0,1-1.22-1,3.74,3.74,0,0,1,0-.75V4.49c-.46.17-.93.51-1.35.44S.38,4.41,0,4.12Z"/><path class="cls-1" d="M34,27.72l-6.48-6.48a4.58,4.58,0,0,1-4.69.11c-2,2-4.08,4.07-6.09,6.12a.66.66,0,0,0-.06.57,4.51,4.51,0,1,1-4.86-2.6,5.11,5.11,0,0,1,2.57.3.69.69,0,0,0,.62-.12c1.95-1.91,3.88-3.83,5.79-5.78a.77.77,0,0,0,.11-.68,4.52,4.52,0,0,1,2.74-6,4.4,4.4,0,0,1,5.77,3.16,7.23,7.23,0,0,1-.07,2.45c-.05.35-.09.59.19.87,2,2,4,3.93,5.93,5.9a.58.58,0,0,0,.75.16,4.27,4.27,0,0,1,3.58,0,.56.56,0,0,0,.74-.16q4.55-4.56,9.11-9.09a.67.67,0,0,0,.16-.82,4.45,4.45,0,0,1,2.93-5.81A4.49,4.49,0,1,1,55,18.56a4.22,4.22,0,0,1-3-.34.53.53,0,0,0-.75.13q-4.49,4.5-9,9a.62.62,0,0,0-.17.81A4.5,4.5,0,1,1,34,27.72ZM56,14.2a2,2,0,0,0-4,0,2,2,0,1,0,4,0ZM25.06,15.45a2,2,0,0,0-2,2,2,2,0,1,0,4,0A2,2,0,0,0,25.06,15.45ZM14.52,29.88a2,2,0,0,0-1.95-2,2,2,0,0,0-2.06,2,2,2,0,0,0,2,2A2,2,0,0,0,14.52,29.88Zm23.44,2a2,2,0,0,0,2-2,2.05,2.05,0,0,0-2-2,2,2,0,0,0-2,2A2,2,0,0,0,38,31.85Z"/><path class="cls-1" d="M5,32.76A1.29,1.29,0,0,1,3.78,34a1.28,1.28,0,0,1-1.27-1.21A1.24,1.24,0,0,1,5,32.76Z"/><path class="cls-1" d="M54,21.48a1.24,1.24,0,1,1-1.22,1.25A1.29,1.29,0,0,1,54,21.48Z"/></g></g></svg>