<svg xmlns="http://www.w3.org/2000/svg" viewBox="0 0 36.37 69.34"><defs><style>.cls-1,.cls-2{fill:#ffbc00;}.cls-2{opacity:0.49;}</style></defs><title>aplicacion</title><g id="Capa_2" data-name="Capa 2"><g id="bg-testimonios"><path class="cls-1" d="M5.55,52.62c-.2-1.32-.34-2.66-.62-4-.8-3.64-1.8-7.24-2.44-10.91a20.85,20.85,0,0,1,.22-4.84c.07-1,.19-2.09.25-3.13,0-.7,0-1.41,0-2.1.13-2.16,1.86-3.18,3.79-2.16a6.83,6.83,0,0,1,3.48,5.37,3,3,0,0,1,0,1.16c-.46,1.73.38,3.26.72,4.86.09.38.56.7.91,1,2.78,2.25,4.86,4.9,4.62,8.69a15,15,0,0,1-.89,3.48c-.07.22-.49.34-.75.51-.06-.3-.25-.64-.17-.9,1.52-5,.45-8.09-3.79-11.21a4.19,4.19,0,0,1-1-1.55,6.06,6.06,0,0,1-.45-1.56A8.19,8.19,0,0,1,9.26,33c.32-2.21-.8-5.21-2.61-6.27a2.43,2.43,0,0,0-1.9-.3c-.43.19-.69,1.06-.75,1.66-.25,2.23-.42,4.47-.56,6.71C3.24,38.31,4.1,41.68,5,45c.36,1.35.88,2.67,1.15,4s.31,2.73.48,4.4L19,58.9A24.36,24.36,0,0,1,20.33,56,4.16,4.16,0,0,1,22,54.2c2.38-.85,3.67-2.65,4.7-4.76a4.75,4.75,0,0,1,.49-.92c.14-.16.44-.19.67-.28.08.24.31.53.24.69-1,2-1.75,4.4-4,5.28-2.43,1-3.33,2.84-4.05,5,.05.05.11.16.21.21,1.92,1,1.92,1,1.07,2.89s-1.84,4.12-2.71,6.2c-.33.79-.7,1-1.5.61Q9,65.54.84,62c-.93-.4-1-.84-.62-1.69Q1.75,57,3.13,53.69c.41-1,.82-1.72,2.08-.85Zm15.31,8.26L4.34,53.63,1.14,61l16.52,7.24Z"/><path class="cls-1" d="M36.37,23.26v19q0,4-4,4h-12a2.18,2.18,0,0,1-.81,0,.89.89,0,0,1-.46-.54c0-.1.26-.37.44-.42a3.51,3.51,0,0,1,.92,0H32.23c2.19,0,3-.85,3-3V4.07c0-2.13-.83-3-3-3H14.56c-2.14,0-3,.83-3,3v20.2a1.61,1.61,0,0,1,0,.58c-.16.37-.38.71-.58,1.07-.17-.34-.48-.68-.48-1,0-2.22,0-4.43,0-6.65V4c0-2.59,1.38-4,4-4h18C35,0,36.36,1.39,36.37,4Z"/><path class="cls-1" d="M23.64,4.73c-.82,0-1.64,0-2.45,0-.31,0-.6-.33-.89-.51.27-.21.54-.59.82-.59,1.71-.06,3.43-.06,5.14,0,.26,0,.51.35.77.54-.27.2-.54.54-.83.57C25.35,4.78,24.49,4.73,23.64,4.73Z"/><path class="cls-1" d="M23.38,43.55a1.42,1.42,0,0,1,.05-2.84,1.41,1.41,0,0,1,1.42,1.5A1.38,1.38,0,0,1,23.38,43.55Z"/><rect class="cls-2" x="13.49" y="6.07" width="19.85" height="32.69" rx="2.04"/></g></g></svg>