<svg xmlns="http://www.w3.org/2000/svg" viewBox="0 0 52.41 48.1"><defs><style>.cls-1{fill:#ffbc00;}</style></defs><title>entrenamiento</title><g id="Capa_2" data-name="Capa 2"><g id="bg-testimonios"><path class="cls-1" d="M13.89,28.37c.88-.62,1.73-1.22,2.59-1.8a.67.67,0,0,1,.53-.08,2.74,2.74,0,0,0,3.7-1.37l.11-.2a2.78,2.78,0,0,0,3.06,1,2.75,2.75,0,0,0,2-2.51A3,3,0,0,0,28,23.18a2.83,2.83,0,0,0,1.35-1.72c.85.08,1.71.15,2.55.26.38.05.41.28.16.59a19.34,19.34,0,0,1-4.27,3.75c-3.39,2.31-6.73,4.69-10.09,7-.1.07-.19.15-.32.26.63.89,1.24,1.77,1.85,2.65s1.33,1.89,2,2.83a1.12,1.12,0,0,1-.3,1.74c-2.55,1.79-5.11,3.57-7.66,5.37-.26.19-.41.1-.62,0A26.54,26.54,0,0,1,2.27,34.77,27,27,0,0,1,0,28.29a.7.7,0,0,1,.33-.88c2.52-1.73,5-3.5,7.52-5.25a1.17,1.17,0,0,1,1.87.33l3.81,5.45Z"/><path class="cls-1" d="M45.69,41.18A26.79,26.79,0,0,1,35.08,48.1l-3-4.23c-2-2.81-3.94-5.61-5.9-8.43a2.27,2.27,0,0,0-2.42-1,.52.52,0,0,1-.44-.18c-.6-.8-1.16-1.62-1.77-2.5L28.3,27a5.55,5.55,0,0,0,1,5.34l.9-.62a4.34,4.34,0,0,1-1.06-3A4.15,4.15,0,0,1,30.19,26c1.06-1.17,2.12-2.33,3.2-3.48.23-.24.22-.39.06-.7a2.29,2.29,0,0,0-2.18-1.26A15.11,15.11,0,0,1,28.21,20a2.53,2.53,0,0,1-1.74-2.08l2.38-.57c.91-.22,1.83-.42,2.73-.65a3.41,3.41,0,0,1,3.77,1.23c.87,1.09,1.65,2.27,2.46,3.41.28.38.52.78.81,1.15a.69.69,0,0,1,.1.76c-.57,1.68-1.13,3.37-1.71,5.05a.67.67,0,0,0,.1.68l8.14,11.61Z"/><path class="cls-1" d="M39,18.21l-1.35.93L37,18.27a7.29,7.29,0,0,0-2-2.13,5.56,5.56,0,0,0-2.52-.78l3-2.12-1.66-2.38-2.53-3.6a1.11,1.11,0,0,1,.3-1.7L39.4.11A.45.45,0,0,1,40,.1,26.67,26.67,0,0,1,52.35,17.53a1.21,1.21,0,0,1-.6,1.5c-2.4,1.61-4.74,3.29-7.1,4.94a1.13,1.13,0,0,1-1.83-.32c-1.15-1.61-2.28-3.24-3.41-4.86Z"/><path class="cls-1" d="M24.78,23.26a1.78,1.78,0,0,1-1.13,1.57,1.56,1.56,0,0,1-1.82-.47c-1.06-1.46-2.09-2.95-3.12-4.44a.76.76,0,0,1,.18-1.08c.46-.35.93-.68,1.42-1a.79.79,0,0,1,1.12.22c1,1.45,2,2.9,3.05,4.37A4,4,0,0,1,24.78,23.26Z"/><path class="cls-1" d="M26,16.86l-.62.18c-.22,1.72.71,3.05,2.92,4.18a1.61,1.61,0,0,1-1.17,1.14,1.48,1.48,0,0,1-1.67-.55c-1.06-1.45-2.08-2.92-3.1-4.4a.78.78,0,0,1,.21-1.11c.45-.34.9-.67,1.38-1a.75.75,0,0,1,1.05.14C25.32,15.9,25.62,16.37,26,16.86Z"/><path class="cls-1" d="M19.91,24a1.79,1.79,0,0,1-1.12,1.57,1.61,1.61,0,0,1-1.86-.5c-.42-.54-.81-1.11-1.18-1.68A.8.8,0,0,1,16,22.22c.42-.32.85-.62,1.3-.91a.79.79,0,0,1,1.16.16c.41.55.81,1.11,1.17,1.69A4.45,4.45,0,0,1,19.91,24Z"/><path class="cls-1" d="M30.58,15.78l-2.47.58c-1,.24-1,.24-1.58-.6-.18-.26-.38-.53-.56-.8a.8.8,0,0,1,.21-1.22c.42-.32.86-.62,1.3-.91a.73.73,0,0,1,1.05.08C29.23,13.82,29.87,14.78,30.58,15.78Z"/></g></g></svg>