<svg xmlns="http://www.w3.org/2000/svg" viewBox="0 0 53.38 46.9"><defs><style>.cls-1{fill:#ffbc00;}</style></defs><title>seguimiento</title><g id="Capa_2" data-name="Capa 2"><g id="bg-testimonios"><path class="cls-1" d="M0,16.58.15,16a4.72,4.72,0,0,1,4.51-3.51c.9,0,1.81,0,2.71,0A.7.7,0,0,0,8.14,12,19.9,19.9,0,0,1,22.45.47,20.12,20.12,0,0,1,45.12,11.94a.83.83,0,0,0,.92.59,24.53,24.53,0,0,1,3.43.09A4.53,4.53,0,0,1,53.33,17q.09,3.38,0,6.77a4.63,4.63,0,0,1-4.5,4.41q-1.45,0-2.91,0a.69.69,0,0,0-.77.49A20.11,20.11,0,0,1,32.33,39.86l-.92.26a25.89,25.89,0,0,1-.15,3,4.62,4.62,0,0,1-4.9,3.83A4.72,4.72,0,0,1,22,42.55a4.67,4.67,0,0,1,3.82-4.92c.82-.13,1.66-.09,2.49-.19,7-.88,11.93-4.6,14.46-11.19a17.17,17.17,0,1,0-33.1-8.42,18.5,18.5,0,0,0,.89,8.67c.18.52.35,1.05.54,1.65H5A4.67,4.67,0,0,1,.09,24.32,2.34,2.34,0,0,0,0,24.08Z"/><path class="cls-1" d="M12.63,34.4V31.48c.71-.33,1.37-.61,2-.95a1.9,1.9,0,0,0,.56-.6c.49-.69.48-.8,0-1.5a14.06,14.06,0,1,1,13.49,5.83,15.36,15.36,0,0,1-1.92.14H12.63Zm9.31-12.51V18.81h-3v3.08Zm3.2,0H28.2V18.8H25.14Zm9.32,0V18.81H31.41v3.08Z"/></g></g></svg>