<svg xmlns="http://www.w3.org/2000/svg" viewBox="0 0 39.66 50.37"><defs><style>.cls-1{fill:#ffbc00;}</style></defs><title>suplementacion</title><g id="Capa_2" data-name="Capa 2"><g id="bg-testimonios"><path class="cls-1" d="M23.67,0,24,.12a2.76,2.76,0,0,1,1.94,2.62c0,.78,0,1.57,0,2.36a2.67,2.67,0,0,1-1.45,2.45.5.5,0,0,0-.31.52c.06,2.71.15,2.29,1.87,3.36a14.33,14.33,0,0,1,4.09,3.42A6.75,6.75,0,0,1,31.56,19c0,4.46,0,8.92,0,13.38v.64a2.26,2.26,0,0,0,.3-.11,5.16,5.16,0,0,1,6.22,8.14c-2.56,2.58-5.13,5.16-7.72,7.71a5.13,5.13,0,0,1-7,.4,1.26,1.26,0,0,0-.72-.2H4.09a3.9,3.9,0,0,1-4-3.07A5.09,5.09,0,0,1,0,44.75c0-8.46,0-16.91,0-25.37A7.94,7.94,0,0,1,3.69,12.7,31.32,31.32,0,0,1,6.36,11a1.77,1.77,0,0,0,1-1.62,5.85,5.85,0,0,1,0-.59,1.22,1.22,0,0,0-.62-1.44A2.34,2.34,0,0,1,5.67,5.19c0-.77,0-1.54,0-2.31A2.74,2.74,0,0,1,7.76.08.65.65,0,0,0,7.93,0ZM2,39.17l.44,0c7.5,0,15,0,22.52,0a1.09,1.09,0,0,0,.68-.28c1.21-1.18,2.39-2.38,3.59-3.57a1,1,0,0,0,.34-.81q0-7.08,0-14.17v-.57H20.3a1,1,0,0,1-1.06-1.17,1,1,0,0,1,1.12-.81h9c0-.15-.05-.27-.08-.37a5.83,5.83,0,0,0-2-2.67c-1-.78-2.11-1.49-3.2-2.18a3.57,3.57,0,0,1-1.82-3c0-.57-.07-1.13-.11-1.7H9.39V8.7a4.2,4.2,0,0,1-2.45,4.23,16.51,16.51,0,0,0-2.24,1.5,6.73,6.73,0,0,0-2.32,2.75,5.78,5.78,0,0,0-.19.62H8c1.13,0,2.26,0,3.39,0a1,1,0,0,1,1,1,1,1,0,0,1-1,1H2Zm21.32,2H2.06a.54.54,0,0,0,0,.12c0,1.15,0,2.29,0,3.44A2,2,0,0,0,4.24,47H21.82A5.35,5.35,0,0,1,23.35,41.22ZM15.78,5.91H23c.65,0,.94-.27.94-.91s0-1.41,0-2.12S23.66,2,23.08,2H8.53c-.61,0-.88.3-.89.92s0,1.28,0,1.92c0,.85.23,1.08,1.07,1.09ZM32,44.27l-4.44-4.46-2.85,2.85c-.18.18-.35.35-.51.54a3.17,3.17,0,0,0,.25,4.28,3.1,3.1,0,0,0,4.23.14C29.87,46.55,30.94,45.37,32,44.27Zm-2.9-6,4.4,4.41c1.14-1.11,2.38-2.19,3.47-3.4a3.09,3.09,0,0,0-.34-4.26,3.14,3.14,0,0,0-4.28,0C31.25,36.11,30.19,37.22,29.12,38.3Z"/><path class="cls-1" d="M16.19,31.82v2.81c0,.85-.35,1.21-1.18,1.22H8.72c-.84,0-1.18-.37-1.18-1.22s0-1.83,0-2.81c-.6,0-1.17,0-1.74,0a1,1,0,0,1-1.06-.57A1.07,1.07,0,0,1,5,30.07l6-7.43a1,1,0,0,1,1.86,0l6,7.44A1.06,1.06,0,0,1,19,31.25a1,1,0,0,1-1.05.57C17.37,31.81,16.82,31.82,16.19,31.82Zm-6.68,2h4.7c0-1,0-1.94,0-2.88a1,1,0,0,1,1-1.1H16l-4.16-5.18L7.73,29.79c.2,0,.3,0,.41,0,1.09,0,1.37.3,1.37,1.38Z"/><path class="cls-1" d="M21.85,24.06c-1.06,0-2.13,0-3.19,0a1.87,1.87,0,0,1-.84-.22.85.85,0,0,1-.37-.94.88.88,0,0,1,.67-.76,1.93,1.93,0,0,1,.53-.07h6.4c.65,0,1.06.27,1.17.75a1,1,0,0,1-1.07,1.24C24.05,24.07,23,24.06,21.85,24.06Z"/><path class="cls-1" d="M22.86,26h2.26a1,1,0,0,1,1.13,1c0,.61-.41,1-1.13,1-1.52,0-3.05,0-4.57,0-.72,0-1.16-.4-1.16-1s.44-1,1.16-1Z"/><path class="cls-1" d="M22.79,35.85H20.53a1,1,0,1,1,0-2h4.62a1,1,0,0,1,1.1,1c0,.59-.41,1-1.1,1S23.57,35.85,22.79,35.85Z"/><path class="cls-1" d="M23.77,31.91c-.48,0-.95,0-1.43,0a1,1,0,0,1-1-.95.94.94,0,0,1,.94-1c1,0,2,0,3,0a1,1,0,0,1,1,1,1,1,0,0,1-1,1H23.77Z"/><path class="cls-1" d="M15.8,17.81a1,1,0,1,1,0,2,1,1,0,0,1,0-2Z"/></g></g></svg>